<?xml version="1.0" encoding="utf-8"?>
<!-- Generator: Adobe Illustrator 19.0.0, SVG Export Plug-In . SVG Version: 6.00 Build 0)  -->
<svg version="1.1" id="Layer_1" xmlns="http://www.w3.org/2000/svg" xmlns:xlink="http://www.w3.org/1999/xlink" x="0px" y="0px"
	 viewBox="0 0 512 512" style="enable-background:new 0 0 512 512;" xml:space="preserve">
<style type="text/css">
	.st0{fill:#ECF0F1;}
	.st1{fill:#F39C12;}
	.st2{fill:#F1C40F;}
	.st3{fill:#E67E22;}
	.st4{fill:#2C3E50;}
	.st5{fill:#C0392B;}
</style>
<g id="XMLID_1_">
	<path id="XMLID_3_" class="st0" d="M106.3,214.3c0,33.9,28.4,63.8,63.8,63.8s63.8-29.9,63.8-63.8
		C233.9,214.3,106.3,214.3,106.3,214.3z"/>
	<polygon id="XMLID_4_" class="st1" points="490.7,41.7 298.5,106.3 439.5,265.5 	"/>
	<polygon id="XMLID_5_" class="st1" points="21.3,41.7 213.5,106.3 72.5,265.5 	"/>
	<ellipse id="XMLID_6_" class="st1" cx="256" cy="278.1" rx="213.5" ry="192.2"/>
	<ellipse id="XMLID_7_" class="st2" cx="256" cy="277.3" rx="192.2" ry="170.9"/>
	<polygon id="XMLID_8_" class="st2" points="63.8,85.1 256,148.9 115,308 	"/>
	<polygon id="XMLID_9_" class="st2" points="448.2,85.1 256,148.9 397,308 	"/>
	<path id="XMLID_10_" class="st3" d="M234.7,299.3v42.5c0,23.6-18.9,42.5-42.5,42.5s-42.5-18.9-42.5-42.5h-21.3
		c0,33.9,28.4,63.8,63.8,63.8s63.8-29.9,63.8-63.8v-42.5H234.7z"/>
	<path id="XMLID_11_" class="st3" d="M277.3,299.3v42.5c0,23.6,18.9,42.5,42.5,42.5s42.5-18.9,42.5-42.5h21.3
		c0,33.9-28.4,63.8-63.8,63.8S256,375.7,256,341.9v-42.5H277.3z"/>
	<polygon id="XMLID_12_" class="st3" points="0,246.5 0,263.1 128.4,312.7 0,311.9 0,327.7 128.4,327.7 130,327.7 0,378.1 0,394.6 
		192.2,320.6 	"/>
	<polygon id="XMLID_13_" class="st3" points="512,245.8 512,263.1 384.4,311.9 512,311.9 512,326.9 383.6,326.9 382,326.9 
		512,375.7 512,393.1 319.8,320.6 	"/>
	<path id="XMLID_14_" class="st0" d="M170.9,170.9c-35.4,0-63.8,27.6-63.8,63.8c0,33.9,28.4,63.8,63.8,63.8s63.8-29.9,63.8-63.8
		C234.7,199.3,206.4,170.9,170.9,170.9z"/>
	<path id="XMLID_15_" class="st4" d="M170.9,193c-23.6,0-42.5,18.9-42.5,42.5s18.9,42.5,42.5,42.5s42.5-18.9,42.5-42.5
		C213.5,211.9,194.6,193,170.9,193z"/>
	<path id="XMLID_16_" class="st0" d="M170.9,193c-11.8,0-21.3,8.7-21.3,21.3c0,11,9.5,21.3,21.3,21.3c11.8,0,21.3-11,21.3-21.3
		C192.2,200.9,182.7,193,170.9,193z"/>
	<path id="XMLID_17_" class="st0" d="M341.1,170.9c-35.4,0-63.8,27.6-63.8,63.8c0,33.9,28.4,63.8,63.8,63.8s63.8-29.9,63.8-63.8
		C405.7,199.3,376.5,170.9,341.1,170.9z"/>
	<path id="XMLID_18_" class="st4" d="M341.1,193c-23.6,0-42.5,18.9-42.5,42.5s18.9,42.5,42.5,42.5s42.5-18.9,42.5-42.5
		C384.4,211.9,364.7,193,341.1,193z"/>
	<path id="XMLID_19_" class="st0" d="M341.1,193c-11.8,0-21.3,8.7-21.3,21.3c0,11,9.5,21.3,21.3,21.3c11.8,0,21.3-11,21.3-21.3
		C362.3,200.9,352.9,193,341.1,193z"/>
	<path id="XMLID_20_" class="st5" d="M218.2,278.1c-5.5,0-11,3.9-11,11c0,2.4,0.8,3.9,2.4,6.3c0.8,2.4,2.4,2.4,3.2,2.4l32.3,33.9
		l2.4,2.4c1.6,2.4,4.7,3.9,7.9,3.9c3.2,0,6.3-2.4,7.9-3.9l2.4-2.4l32.3-33.9c1.6,0,2.4,0,3.2-2.4c1.6-2.4,2.4-3.9,2.4-6.3
		c0-6.3-4.7-11-11-11H256H218.2z"/>
</g>
</svg>
